<?xml version="1.0" encoding="utf-8"?>
<svg version="1.1" xmlns:xlink="http://www.w3.org/1999/xlink" width="38px" height="41px" xmlns="http://www.w3.org/2000/svg">
  <g transform="matrix(1 0 0 1 -347 -163 )">
    <path d="M 347 163  L 385 163  L 385 204  L 347 204  L 347 163  " fill-rule="nonzero" fill="#cccccc" stroke="none" />
    <path d="M 350 166  L 382 166  L 382 201  L 350 201  L 350 166  " fill-rule="nonzero" fill="#ffffff" stroke="none" />
    <path d="M 369.61 174.85  C 368.014 174.85  366.76 173.596  366.76 172  C 366.76 170.404  368.014 169.15  369.61 169.15  C 371.206 169.15  372.46 170.404  372.46 172  C 372.46 173.596  371.206 174.85  369.61 174.85  " fill-rule="nonzero" fill="#cccccc" stroke="none" />
    <path d="M 351 200  L 351 181.85  L 358.5 173.6  L 369 180.2  L 375 178.55  L 381 180.2  L 381 200  L 351 200  " fill-rule="nonzero" fill="#169bd5" stroke="none" />
  </g>
</svg>