<?xml version="1.0" encoding="utf-8"?>
<svg version="1.1" xmlns:xlink="http://www.w3.org/1999/xlink" width="30px" height="30px" xmlns="http://www.w3.org/2000/svg">
  <defs>
    <filter x="1233px" y="52px" width="30px" height="30px" filterUnits="userSpaceOnUse" id="filter24">
      <feOffset dx="1" dy="1" in="SourceAlpha" result="shadowOffsetInner" />
      <feGaussianBlur stdDeviation="2.5" in="shadowOffsetInner" result="shadowGaussian" />
      <feComposite in2="shadowGaussian" operator="atop" in="SourceAlpha" result="shadowComposite" />
      <feColorMatrix type="matrix" values="0 0 0 0 0  0 0 0 0 0  0 0 0 0 0  0 0 0 0.698039215686274 0  " in="shadowComposite" />
    </filter>
    <g id="widget25">
      <path d="M 1247 56  C 1252.6 56  1257 60.4  1257 66  C 1257 71.6  1252.6 76  1247 76  C 1241.4 76  1237 71.6  1237 66  C 1237 60.4  1241.4 56  1247 56  Z " fill-rule="nonzero" fill="#009dd9" stroke="none" />
      <path d="M 1247 56.5  C 1252.32 56.5  1256.5 60.68  1256.5 66  C 1256.5 71.32  1252.32 75.5  1247 75.5  C 1241.68 75.5  1237.5 71.32  1237.5 66  C 1237.5 60.68  1241.68 56.5  1247 56.5  Z " stroke-width="1" stroke="#ffffff" fill="none" />
    </g>
  </defs>
  <g transform="matrix(1 0 0 1 -1233 -52 )">
    <use xlink:href="#widget25" filter="url(#filter24)" />
    <use xlink:href="#widget25" />
  </g>
</svg>