<?xml version="1.0" encoding="utf-8"?>
<svg version="1.1" xmlns:xlink="http://www.w3.org/1999/xlink" width="40px" height="40px" xmlns="http://www.w3.org/2000/svg">
  <defs>
    <filter x="432px" y="30px" width="40px" height="40px" filterUnits="userSpaceOnUse" id="filter21">
      <feOffset dx="1" dy="1" in="SourceAlpha" result="shadowOffsetInner" />
      <feGaussianBlur stdDeviation="2.5" in="shadowOffsetInner" result="shadowGaussian" />
      <feComposite in2="shadowGaussian" operator="atop" in="SourceAlpha" result="shadowComposite" />
      <feColorMatrix type="matrix" values="0 0 0 0 0  0 0 0 0 0  0 0 0 0 0  0 0 0 0.698039215686274 0  " in="shadowComposite" />
    </filter>
    <g id="widget22">
      <path d="M 451 34  C 459.4 34  466 40.6  466 49  C 466 57.4  459.4 64  451 64  C 442.6 64  436 57.4  436 49  C 436 40.6  442.6 34  451 34  Z " fill-rule="nonzero" fill="#009dd9" stroke="none" />
      <path d="M 451 34.5  C 459.12 34.5  465.5 40.88  465.5 49  C 465.5 57.12  459.12 63.5  451 63.5  C 442.88 63.5  436.5 57.12  436.5 49  C 436.5 40.88  442.88 34.5  451 34.5  Z " stroke-width="1" stroke="#ffffff" fill="none" />
    </g>
  </defs>
  <g transform="matrix(1 0 0 1 -432 -30 )">
    <use xlink:href="#widget22" filter="url(#filter21)" />
    <use xlink:href="#widget22" />
  </g>
</svg>