<?xml version="1.0" encoding="utf-8"?>
<svg version="1.1" xmlns:xlink="http://www.w3.org/1999/xlink" width="40px" height="40px" xmlns="http://www.w3.org/2000/svg">
  <defs>
    <filter x="444px" y="29px" width="40px" height="40px" filterUnits="userSpaceOnUse" id="filter22">
      <feOffset dx="1" dy="1" in="SourceAlpha" result="shadowOffsetInner" />
      <feGaussianBlur stdDeviation="2.5" in="shadowOffsetInner" result="shadowGaussian" />
      <feComposite in2="shadowGaussian" operator="atop" in="SourceAlpha" result="shadowComposite" />
      <feColorMatrix type="matrix" values="0 0 0 0 0  0 0 0 0 0  0 0 0 0 0  0 0 0 0.698039215686274 0  " in="shadowComposite" />
    </filter>
    <g id="widget23">
      <path d="M 463 33  C 471.4 33  478 39.6  478 48  C 478 56.4  471.4 63  463 63  C 454.6 63  448 56.4  448 48  C 448 39.6  454.6 33  463 33  Z " fill-rule="nonzero" fill="#009dd9" stroke="none" />
      <path d="M 463 33.5  C 471.12 33.5  477.5 39.88  477.5 48  C 477.5 56.12  471.12 62.5  463 62.5  C 454.88 62.5  448.5 56.12  448.5 48  C 448.5 39.88  454.88 33.5  463 33.5  Z " stroke-width="1" stroke="#ffffff" fill="none" />
    </g>
  </defs>
  <g transform="matrix(1 0 0 1 -444 -29 )">
    <use xlink:href="#widget23" filter="url(#filter22)" />
    <use xlink:href="#widget23" />
  </g>
</svg>