<?xml version="1.0" encoding="utf-8"?>
<svg version="1.1" xmlns:xlink="http://www.w3.org/1999/xlink" width="9px" height="11px" xmlns="http://www.w3.org/2000/svg">
  <g transform="matrix(1 0 0 1 -738 -101 )">
    <path d="M 1.78849431818183 8.81406249999999  C 2.51100852272727 9.696875  3.41484375 10.1546875  4.5 10.1875  C 5.58536931818183 10.1549479166667  6.48920454545456 9.69713541666668  7.21150568181817 8.81406249999999  C 7.93380681818182 7.93098958333334  8.30838068181818 6.82630208333333  8.33522727272726 5.5  C 8.30859375000001 4.17343749999999  7.93401988636365 3.06874999999998  7.21150568181817 2.18593750000001  C 6.48899147727273 1.303125  5.58515625 0.845312500000002  4.5 0.81250000000002  C 3.41463068181817 0.845052083333318  2.51079545454544 1.30286458333332  1.78849431818183 2.18593750000001  C 1.06619318181818 3.06901041666666  0.69161931818182 4.17369791666667  0.664772727272744 5.5  C 0.691406249999988 6.82656250000001  1.06598011363635 7.93125000000002  1.78849431818183 8.81406249999999  Z M 7.66118607954544 9.36367187499998  C 6.81892755681818 10.3930989583333  5.76519886363637 10.928125  4.5 10.96875  C 3.23480113636363 10.928125  2.18107244318181 10.3930989583333  1.33881392045456 9.36367187499998  C 0.496555397727276 8.33424479166667  0.0588068181818195 7.04635416666668  0.0255681818181586 5.5  C 0.0588068181818195 3.95364583333332  0.496555397727276 2.66575520833333  1.33881392045456 1.63632812500002  C 2.18107244318181 0.60690104166667  3.23480113636363 0.0718750000000016  4.5 0.0312499999999716  C 5.76519886363637 0.0718750000000016  6.81892755681818 0.60690104166667  7.66118607954544 1.63632812500002  C 8.50344460227272 2.66575520833333  8.94119318181818 3.95364583333332  8.97443181818184 5.5  C 8.94119318181818 7.04635416666668  8.50344460227272 8.33424479166667  7.66118607954544 9.36367187499998  Z M 3.95060369318183 2.484765625  C 4.01047585227273 2.41158854166667  4.08707386363638 2.37500000000003  4.18039772727274 2.37500000000003  C 4.2737215909091 2.37500000000003  4.35031960227272 2.41158854166667  4.41019176136362 2.484765625  C 4.47006392045453 2.55794270833333  4.5 2.65156250000001  4.5 2.76562500000001  L 4.5 5.89062499999998  C 4.5 6.00468749999998  4.47006392045453 6.09830729166666  4.41019176136362 6.17148437499999  C 4.35031960227272 6.24466145833336  4.2737215909091 6.28125  4.18039772727274 6.28125  C 4.08707386363638 6.28125  4.01047585227273 6.24466145833336  3.95060369318183 6.17148437499999  C 3.89073153409089 6.09830729166666  3.86079545454545 6.00468749999998  3.86079545454545 5.89062499999998  L 3.86079545454545 2.76562500000001  C 3.86079545454545 2.65156250000001  3.89073153409089 2.55794270833333  3.95060369318183 2.484765625  Z M 3.86079545454545 5.89062499999998  C 3.86079545454545 5.63020833333333  3.96732954545454 5.5  4.18039772727274 5.5  L 6.7372159090909 5.5  C 6.95028409090911 5.5  7.05681818181816 5.63020833333333  7.05681818181816 5.89062499999998  C 7.05681818181816 6.15104166666668  6.95028409090911 6.28125  6.7372159090909 6.28125  L 4.18039772727274 6.28125  C 3.96732954545454 6.28125  3.86079545454545 6.15104166666668  3.86079545454545 5.89062499999998  Z " fill-rule="nonzero" fill="#c0c4cc" stroke="none" transform="matrix(1 0 0 1 738 101 )" />
  </g>
</svg>