<?xml version="1.0" encoding="utf-8"?>
<svg version="1.1" xmlns:xlink="http://www.w3.org/1999/xlink" width="9px" height="11px" xmlns="http://www.w3.org/2000/svg">
  <g transform="matrix(1 0 0 1 -993 -102 )">
    <path d="M 3.1416903409091 6.59804687499997  L 4.05063920454543 5.5  L 3.1416903409091 4.40117187499998  C 3.08181818181816 4.31966145833333  3.05188210227272 4.22604166666669  3.05188210227272 4.12031249999997  C 3.05188210227272 4.01458333333334  3.08352272727274 3.92304687500004  3.14680397727269 3.845703125  C 3.21008522727272 3.76835937499996  3.28497869318183 3.72968750000004  3.37148437500001 3.72968750000004  C 3.4579900568182 3.72968750000004  3.53458806818181 3.76627604166663  3.60127840909086 3.83945312500001  L 4.50031960227269 4.95039062500001  L 5.39936079545453 3.83945312500001  C 5.49268465909089 3.73372395833338  5.59751420454543 3.70117187499999  5.71384943181815 3.74179687499998  C 5.83018465909087 3.78242187500001  5.90507812499998 3.87395833333336  5.93852982954547 4.01640624999999  C 5.97198153409097 4.15885416666667  5.94534801136365 4.28697916666667  5.85862926136367 4.40078125000002  L 4.94968039772726 5.49960937500004  L 5.85862926136367 6.59843750000002  C 5.94513494318178 6.71249999999997  5.9717684659091 6.84062499999996  5.93852982954547 6.98281249999996  C 5.90529119318185 7.125  5.83039772727274 7.21653645833335  5.71384943181815 7.25742187500002  C 5.59730113636363 7.29830729166669  5.49247159090909 7.26575520833334  5.39936079545453 7.15976562499999  L 4.50031960227269 6.04882812499998  L 3.60127840909086 7.15976562499999  C 3.53458806818181 7.23294270833332  3.4579900568182 7.26953125  3.37148437500001 7.26953125  C 3.28497869318183 7.26953125  3.21008522727272 7.23085937500003  3.14680397727269 7.15351562499999  C 3.08352272727274 7.076171875  3.05188210227272 6.98463541666665  3.05188210227272 6.87890625000002  C 3.05188210227272 6.77317708333331  3.08181818181816 6.67955729166667  3.1416903409091 6.59804687499997  Z M 1.78849431818186 8.81406249999999  C 2.51100852272727 9.696875  3.41484375 10.1546875  4.5 10.1875  C 5.58536931818186 10.1549479166667  6.48920454545453 9.69713541666664  7.21150568181814 8.81406249999999  C 7.93380681818182 7.93098958333334  8.30838068181818 6.82630208333333  8.33522727272729 5.5  C 8.30859374999998 4.17343749999999  7.93401988636361 3.06875000000002  7.21150568181814 2.18593750000001  C 6.48899147727273 1.303125  5.58515625 0.845312500000002  4.5 0.812499999999976  C 3.41463068181814 0.845052083333318  2.51079545454547 1.30286458333332  1.78849431818186 2.18593750000001  C 1.06619318181818 3.06901041666666  0.69161931818182 4.17369791666667  0.664772727272707 5.5  C 0.691406250000024 6.82656250000001  1.06598011363631 7.93124999999998  1.78849431818186 8.81406249999999  Z M 7.66118607954547 9.36367187500002  C 6.81892755681818 10.3930989583333  5.76519886363634 10.928125  4.5 10.96875  C 3.23480113636366 10.928125  2.18107244318181 10.3930989583333  1.33881392045453 9.36367187500002  C 0.496555397727239 8.33424479166667  0.0588068181818195 7.04635416666663  0.0255681818181951 5.5  C 0.0588068181818195 3.95364583333337  0.496555397727239 2.66575520833333  1.33881392045453 1.63632812499998  C 2.18107244318181 0.60690104166667  3.23480113636366 0.0718750000000016  4.5 0.0312500000000162  C 5.76519886363634 0.0718750000000016  6.81892755681818 0.60690104166667  7.66118607954547 1.63632812499998  C 8.50344460227276 2.66575520833333  8.94119318181818 3.95364583333337  8.9744318181818 5.5  C 8.94119318181818 7.04635416666663  8.50344460227276 8.33424479166667  7.66118607954547 9.36367187500002  Z " fill-rule="nonzero" fill="#c0c4cc" stroke="none" transform="matrix(1 0 0 1 993 102 )" />
  </g>
</svg>