<?xml version="1.0" encoding="utf-8"?>
<svg version="1.1" xmlns:xlink="http://www.w3.org/1999/xlink" width="9px" height="12px" xmlns="http://www.w3.org/2000/svg">
  <g transform="matrix(1 0 0 1 -623 -54 )">
    <path d="M 1.78849431818183 9.6153409090909  C 2.51100852272727 10.5784090909091  3.41484375 11.0778409090909  4.5 11.1136363636363  C 5.58536931818183 11.078125  6.48920454545456 10.5786931818182  7.21150568181817 9.6153409090909  C 7.93380681818182 8.65198863636364  8.30838068181818 7.44687499999999  8.33522727272726 6  C 8.30859375000001 4.5528409090909  7.93401988636365 3.34772727272725  7.21150568181817 2.3846590909091  C 6.48899147727273 1.42159090909091  5.58515625 0.922159090909093  4.5 0.886363636363659  C 3.41463068181817 0.921874999999984  2.51079545454544 1.4213068181818  1.78849431818183 2.3846590909091  C 1.06619318181818 3.34801136363636  0.69161931818182 4.55312500000001  0.664772727272744 6  C 0.691406249999988 7.4471590909091  1.06598011363635 8.65227272727275  1.78849431818183 9.6153409090909  Z M 7.66118607954544 10.2149147727272  C 6.81892755681818 11.3379261363636  5.76519886363637 11.9215909090909  4.5 11.9659090909091  C 3.23480113636363 11.9215909090909  2.18107244318181 11.3379261363636  1.33881392045456 10.2149147727272  C 0.496555397727276 9.09190340909091  0.0588068181818195 7.68693181818183  0.0255681818181586 6  C 0.0588068181818195 4.31306818181817  0.496555397727276 2.90809659090909  1.33881392045456 1.78508522727275  C 2.18107244318181 0.662073863636367  3.23480113636363 0.0784090909090927  4.5 0.0340909090908781  C 5.76519886363637 0.0784090909090927  6.81892755681818 0.662073863636367  7.66118607954544 1.78508522727275  C 8.50344460227272 2.90809659090909  8.94119318181818 4.31306818181817  8.97443181818184 6  C 8.94119318181818 7.68693181818183  8.50344460227272 9.09190340909091  7.66118607954544 10.2149147727272  Z M 3.95060369318183 2.71065340909091  C 4.01047585227273 2.63082386363637  4.08707386363638 2.59090909090912  4.18039772727274 2.59090909090912  C 4.2737215909091 2.59090909090912  4.35031960227272 2.63082386363637  4.41019176136362 2.71065340909091  C 4.47006392045453 2.79048295454545  4.5 2.89261363636365  4.5 3.01704545454546  L 4.5 6.42613636363634  C 4.5 6.55056818181816  4.47006392045453 6.65269886363636  4.41019176136362 6.7325284090909  C 4.35031960227272 6.81235795454549  4.2737215909091 6.85227272727273  4.18039772727274 6.85227272727273  C 4.08707386363638 6.85227272727273  4.01047585227273 6.81235795454549  3.95060369318183 6.7325284090909  C 3.89073153409089 6.65269886363636  3.86079545454545 6.55056818181816  3.86079545454545 6.42613636363634  L 3.86079545454545 3.01704545454546  C 3.86079545454545 2.89261363636365  3.89073153409089 2.79048295454545  3.95060369318183 2.71065340909091  Z M 3.86079545454545 6.42613636363634  C 3.86079545454545 6.14204545454545  3.96732954545454 6  4.18039772727274 6  L 6.7372159090909 6  C 6.95028409090911 6  7.05681818181816 6.14204545454545  7.05681818181816 6.42613636363634  C 7.05681818181816 6.71022727272728  6.95028409090911 6.85227272727273  6.7372159090909 6.85227272727273  L 4.18039772727274 6.85227272727273  C 3.96732954545454 6.85227272727273  3.86079545454545 6.71022727272728  3.86079545454545 6.42613636363634  Z " fill-rule="nonzero" fill="#c0c4cc" stroke="none" transform="matrix(1 0 0 1 623 54 )" />
  </g>
</svg>