<?xml version="1.0" encoding="utf-8"?>
<svg version="1.1" xmlns:xlink="http://www.w3.org/1999/xlink" width="9px" height="12px" xmlns="http://www.w3.org/2000/svg">
  <g transform="matrix(1 0 0 1 -890 -54 )">
    <path d="M 3.1416903409091 7.19786931818179  L 4.05063920454543 6  L 3.1416903409091 4.80127840909089  C 3.08181818181816 4.71235795454545  3.05188210227272 4.61022727272729  3.05188210227272 4.49488636363633  C 3.05188210227272 4.37954545454547  3.08352272727274 4.27968750000004  3.14680397727269 4.1953125  C 3.21008522727272 4.11093749999996  3.28497869318183 4.06875000000004  3.37148437500001 4.06875000000004  C 3.4579900568182 4.06875000000004  3.53458806818181 4.10866477272724  3.60127840909086 4.18849431818182  L 4.50031960227269 5.40042613636365  L 5.39936079545453 4.18849431818182  C 5.49268465909089 4.07315340909096  5.59751420454543 4.03764204545454  5.71384943181815 4.0819602272727  C 5.83018465909087 4.12627840909092  5.90507812499998 4.22613636363639  5.93852982954547 4.38153409090908  C 5.97198153409097 4.53693181818182  5.94534801136365 4.67670454545454  5.85862926136367 4.8008522727273  L 4.94968039772726 5.99957386363641  L 5.85862926136367 7.19829545454547  C 5.94513494318178 7.32272727272724  5.9717684659091 7.46249999999996  5.93852982954547 7.61761363636359  C 5.90529119318185 7.77272727272727  5.83039772727274 7.87258522727274  5.71384943181815 7.91718750000002  C 5.59730113636363 7.96178977272729  5.49247159090909 7.92627840909092  5.39936079545453 7.8106534090909  L 4.50031960227269 6.59872159090907  L 3.60127840909086 7.8106534090909  C 3.53458806818181 7.89048295454544  3.4579900568182 7.93039772727273  3.37148437500001 7.93039772727273  C 3.28497869318183 7.93039772727273  3.21008522727272 7.88821022727276  3.14680397727269 7.80383522727272  C 3.08352272727274 7.71946022727273  3.05188210227272 7.61960227272726  3.05188210227272 7.50426136363639  C 3.05188210227272 7.38892045454543  3.08181818181816 7.28678977272727  3.1416903409091 7.19786931818179  Z M 1.78849431818186 9.6153409090909  C 2.51100852272727 10.5784090909091  3.41484375 11.0778409090909  4.5 11.1136363636364  C 5.58536931818186 11.078125  6.48920454545453 10.5786931818182  7.21150568181814 9.6153409090909  C 7.93380681818182 8.65198863636364  8.30838068181818 7.44687499999999  8.33522727272729 6  C 8.30859374999998 4.5528409090909  7.93401988636361 3.3477272727273  7.21150568181814 2.3846590909091  C 6.48899147727273 1.42159090909091  5.58515625 0.922159090909093  4.5 0.88636363636361  C 3.41463068181814 0.921874999999984  2.51079545454547 1.4213068181818  1.78849431818186 2.3846590909091  C 1.06619318181818 3.34801136363636  0.69161931818182 4.55312500000001  0.664772727272707 6  C 0.691406250000024 7.4471590909091  1.06598011363631 8.6522727272727  1.78849431818186 9.6153409090909  Z M 7.66118607954547 10.2149147727273  C 6.81892755681818 11.3379261363636  5.76519886363634 11.9215909090909  4.5 11.9659090909091  C 3.23480113636366 11.9215909090909  2.18107244318181 11.3379261363636  1.33881392045453 10.2149147727273  C 0.496555397727239 9.09190340909091  0.0588068181818195 7.68693181818178  0.0255681818181951 6  C 0.0588068181818195 4.31306818181822  0.496555397727239 2.90809659090909  1.33881392045453 1.7850852272727  C 2.18107244318181 0.662073863636367  3.23480113636366 0.0784090909090927  4.5 0.0340909090909268  C 5.76519886363634 0.0784090909090927  6.81892755681818 0.662073863636367  7.66118607954547 1.7850852272727  C 8.50344460227276 2.90809659090909  8.94119318181818 4.31306818181822  8.9744318181818 6  C 8.94119318181818 7.68693181818178  8.50344460227276 9.09190340909091  7.66118607954547 10.2149147727273  Z " fill-rule="nonzero" fill="#c0c4cc" stroke="none" transform="matrix(1 0 0 1 890 54 )" />
  </g>
</svg>