<?xml version="1.0" encoding="utf-8"?>
<svg version="1.1" xmlns:xlink="http://www.w3.org/1999/xlink" width="15px" height="15px" xmlns="http://www.w3.org/2000/svg">
  <defs>
    <mask fill="white" id="clip52">
      <path d="M 14.3884892086331 6.65467625899282  C 14.3884892086331 5.86330935251794  13.5791366906474 5.21582733812954  12.589928057554 5.21582733812954  L 11.5107913669064 5.21582733812954  L 11.5107913669064 3.53597122302153  C 11.5107913669064 1.64028776978421  9.62230215827333 0.0647482014388743  7.25269784172667 0.0359712230215337  C 4.85161870503603 0.0107913669064601  2.87769784172667 1.57553956834533  2.87769784172667 3.48920863309354  L 2.87769784172667 5.21582733812954  L 1.7985611510791 5.21582733812954  C 0.809352517985644 5.21582733812954  0 5.86330935251794  0 6.65467625899282  L 0 13.5611510791367  C 0 14.3525179856115  0.809352517985644 15  1.7985611510791 15  L 12.589928057554 15  C 13.5791366906474 15  14.3884892086331 14.3525179856115  14.3884892086331 13.5611510791367  L 14.3884892086331 6.65467625899282  Z M 8.63309352517987 8.66906474820144  C 8.63309352517987 9.1258992805756  8.30485611510795 9.51798561151077  7.82374100719423 9.70503597122297  L 7.82374100719423 12.1798561151079  C 7.82374100719423 12.4496402877697  7.56294964028783 12.68345323741  7.22571942446038 12.6978417266187  C 6.86600719424462 12.7122302158274  6.56474820143885 12.4820143884892  6.56474820143885 12.1942446043165  L 6.56474820143885 9.70503597122297  C 6.04766187050359 9.50359712230215  5.70593525179859 9.06474820143887  5.75989208633089 8.56474820143887  C 5.82284172661872 8.00719424460431  6.39388489208628 7.56115107913672  7.09082733812949 7.52158273381292  C 7.93165467625897 7.47482014388493  8.63309352517987 8.00719424460431  8.63309352517987 8.66906474820144  Z M 10.251798561151 3.48920863309354  L 10.251798561151 5.21582733812954  L 4.13669064748206 5.21582733812954  L 4.13669064748206 3.48920863309354  C 4.13669064748206 2.83812949640287  4.45593525179859 2.226618705036  5.03597122302153 1.76258992805754  C 5.61600719424462 1.29856115107918  6.3803956834532 1.04316546762595  7.19424460431654 1.04316546762595  C 8.00809352517987 1.04316546762595  8.77248201438846 1.29856115107918  9.35251798561154 1.76258992805754  C 9.93255395683448 2.226618705036  10.251798561151 2.83812949640287  10.251798561151 3.48920863309354  Z " fill-rule="evenodd" />
    </mask>
  </defs>
  <g transform="matrix(1 0 0 1 -538 -405 )">
    <path d="M 14.3884892086331 6.65467625899282  C 14.3884892086331 5.86330935251794  13.5791366906474 5.21582733812954  12.589928057554 5.21582733812954  L 11.5107913669064 5.21582733812954  L 11.5107913669064 3.53597122302153  C 11.5107913669064 1.64028776978421  9.62230215827333 0.0647482014388743  7.25269784172667 0.0359712230215337  C 4.85161870503603 0.0107913669064601  2.87769784172667 1.57553956834533  2.87769784172667 3.48920863309354  L 2.87769784172667 5.21582733812954  L 1.7985611510791 5.21582733812954  C 0.809352517985644 5.21582733812954  0 5.86330935251794  0 6.65467625899282  L 0 13.5611510791367  C 0 14.3525179856115  0.809352517985644 15  1.7985611510791 15  L 12.589928057554 15  C 13.5791366906474 15  14.3884892086331 14.3525179856115  14.3884892086331 13.5611510791367  L 14.3884892086331 6.65467625899282  Z M 8.63309352517987 8.66906474820144  C 8.63309352517987 9.1258992805756  8.30485611510795 9.51798561151077  7.82374100719423 9.70503597122297  L 7.82374100719423 12.1798561151079  C 7.82374100719423 12.4496402877697  7.56294964028783 12.68345323741  7.22571942446038 12.6978417266187  C 6.86600719424462 12.7122302158274  6.56474820143885 12.4820143884892  6.56474820143885 12.1942446043165  L 6.56474820143885 9.70503597122297  C 6.04766187050359 9.50359712230215  5.70593525179859 9.06474820143887  5.75989208633089 8.56474820143887  C 5.82284172661872 8.00719424460431  6.39388489208628 7.56115107913672  7.09082733812949 7.52158273381292  C 7.93165467625897 7.47482014388493  8.63309352517987 8.00719424460431  8.63309352517987 8.66906474820144  Z M 10.251798561151 3.48920863309354  L 10.251798561151 5.21582733812954  L 4.13669064748206 5.21582733812954  L 4.13669064748206 3.48920863309354  C 4.13669064748206 2.83812949640287  4.45593525179859 2.226618705036  5.03597122302153 1.76258992805754  C 5.61600719424462 1.29856115107918  6.3803956834532 1.04316546762595  7.19424460431654 1.04316546762595  C 8.00809352517987 1.04316546762595  8.77248201438846 1.29856115107918  9.35251798561154 1.76258992805754  C 9.93255395683448 2.226618705036  10.251798561151 2.83812949640287  10.251798561151 3.48920863309354  Z " fill-rule="nonzero" fill="#c9c9c9" stroke="none" transform="matrix(1 0 0 1 538 405 )" />
    <path d="M 14.3884892086331 6.65467625899282  C 14.3884892086331 5.86330935251794  13.5791366906474 5.21582733812954  12.589928057554 5.21582733812954  L 11.5107913669064 5.21582733812954  L 11.5107913669064 3.53597122302153  C 11.5107913669064 1.64028776978421  9.62230215827333 0.0647482014388743  7.25269784172667 0.0359712230215337  C 4.85161870503603 0.0107913669064601  2.87769784172667 1.57553956834533  2.87769784172667 3.48920863309354  L 2.87769784172667 5.21582733812954  L 1.7985611510791 5.21582733812954  C 0.809352517985644 5.21582733812954  0 5.86330935251794  0 6.65467625899282  L 0 13.5611510791367  C 0 14.3525179856115  0.809352517985644 15  1.7985611510791 15  L 12.589928057554 15  C 13.5791366906474 15  14.3884892086331 14.3525179856115  14.3884892086331 13.5611510791367  L 14.3884892086331 6.65467625899282  Z " stroke-width="2" stroke="#797979" fill="none" transform="matrix(1 0 0 1 538 405 )" mask="url(#clip52)" />
    <path d="M 8.63309352517987 8.66906474820144  C 8.63309352517987 9.1258992805756  8.30485611510795 9.51798561151077  7.82374100719423 9.70503597122297  L 7.82374100719423 12.1798561151079  C 7.82374100719423 12.4496402877697  7.56294964028783 12.68345323741  7.22571942446038 12.6978417266187  C 6.86600719424462 12.7122302158274  6.56474820143885 12.4820143884892  6.56474820143885 12.1942446043165  L 6.56474820143885 9.70503597122297  C 6.04766187050359 9.50359712230215  5.70593525179859 9.06474820143887  5.75989208633089 8.56474820143887  C 5.82284172661872 8.00719424460431  6.39388489208628 7.56115107913672  7.09082733812949 7.52158273381292  C 7.93165467625897 7.47482014388493  8.63309352517987 8.00719424460431  8.63309352517987 8.66906474820144  Z " stroke-width="2" stroke="#797979" fill="none" transform="matrix(1 0 0 1 538 405 )" mask="url(#clip52)" />
    <path d="M 10.251798561151 3.48920863309354  L 10.251798561151 5.21582733812954  L 4.13669064748206 5.21582733812954  L 4.13669064748206 3.48920863309354  C 4.13669064748206 2.83812949640287  4.45593525179859 2.226618705036  5.03597122302153 1.76258992805754  C 5.61600719424462 1.29856115107918  6.3803956834532 1.04316546762595  7.19424460431654 1.04316546762595  C 8.00809352517987 1.04316546762595  8.77248201438846 1.29856115107918  9.35251798561154 1.76258992805754  C 9.93255395683448 2.226618705036  10.251798561151 2.83812949640287  10.251798561151 3.48920863309354  Z " stroke-width="2" stroke="#797979" fill="none" transform="matrix(1 0 0 1 538 405 )" mask="url(#clip52)" />
  </g>
</svg>